<?xml version="1.0" encoding="UTF-8"?> <svg xmlns="http://www.w3.org/2000/svg" width="76" height="64" viewBox="0 0 76 64" fill="none"><path d="M7.15 19.225C11.4 19.225 13.675 16.375 13.675 12.475C13.675 8.55 11.35 5.7 7.15 5.7C2.95 5.7 0.625 8.55 0.625 12.475C0.625 16.4 2.9 19.225 7.15 19.225ZM7.15 15.85C5.575 15.85 4.55 14.85 4.55 12.475C4.55 10.125 5.55 9.075 7.15 9.075C8.75 9.075 9.75 10.1 9.75 12.475C9.75 14.85 8.75 15.85 7.15 15.85ZM15.0566 19H18.9066V11.75C18.9066 10.175 20.0066 9.2 21.3816 9.2C22.9066 9.2 23.5816 10.1 23.5816 11.6V19H27.4316V10.4C27.4316 7.5 25.4816 5.7 22.5816 5.7C20.8816 5.7 19.7316 6.325 19.0066 7.175H18.9066V0.5H15.0566V19ZM31.1307 4.6C32.6057 4.6 33.4557 3.75 33.4557 2.35C33.4557 0.975 32.6057 0.124999 31.1307 0.124999C29.6057 0.124999 28.8057 0.975 28.8057 2.35C28.8057 3.75 29.6057 4.6 31.1307 4.6ZM29.1807 19H33.0307V5.925H29.1807V19ZM40.6842 19.225C44.9342 19.225 47.2092 16.375 47.2092 12.475C47.2092 8.55 44.8842 5.7 40.6842 5.7C36.4842 5.7 34.1592 8.55 34.1592 12.475C34.1592 16.4 36.4342 19.225 40.6842 19.225ZM40.6842 15.85C39.1092 15.85 38.0842 14.85 38.0842 12.475C38.0842 10.125 39.0842 9.075 40.6842 9.075C42.2842 9.075 43.2842 10.1 43.2842 12.475C43.2842 14.85 42.2842 15.85 40.6842 15.85ZM5.925 41.225C7.775 41.225 8.775 40.5 9.4 39.75H9.5L9.9 41H13.35V22.5H9.5V29.175H9.4C8.775 28.425 7.775 27.7 5.925 27.7C2.625 27.7 0.625 30.55 0.625 34.45C0.625 38.375 2.625 41.225 5.925 41.225ZM7.1 37.85C5.2 37.85 4.525 36.275 4.525 34.45C4.525 32.625 5.15 31.075 7.1 31.075C9.05 31.075 9.675 32.625 9.675 34.45C9.675 36.275 9 37.85 7.1 37.85ZM17.0555 26.6C18.5305 26.6 19.3805 25.75 19.3805 24.35C19.3805 22.975 18.5305 22.125 17.0555 22.125C15.5305 22.125 14.7305 22.975 14.7305 24.35C14.7305 25.75 15.5305 26.6 17.0555 26.6ZM15.1055 41H18.9555V27.925H15.1055V41ZM26.409 46.95C30.059 46.95 32.809 44.9 32.809 41.625V27.925H29.359L28.959 29.175H28.859C28.234 28.425 27.234 27.7 25.384 27.7C22.084 27.7 20.084 30.55 20.084 34.475C20.084 38.375 22.084 41.225 25.384 41.225C27.234 41.225 28.234 40.5 28.859 39.75H28.959V41.575C28.959 42.75 28.109 43.65 26.409 43.65C25.209 43.65 24.334 43 24.234 42.125H20.459C20.534 45.075 22.884 46.95 26.409 46.95ZM26.559 37.85C24.609 37.85 23.984 36.3 23.984 34.475C23.984 32.65 24.659 31.075 26.559 31.075C28.459 31.075 29.134 32.65 29.134 34.475C29.134 36.3 28.509 37.85 26.559 37.85ZM36.5145 26.6C37.9895 26.6 38.8395 25.75 38.8395 24.35C38.8395 22.975 37.9895 22.125 36.5145 22.125C34.9895 22.125 34.1895 22.975 34.1895 24.35C34.1895 25.75 34.9895 26.6 36.5145 26.6ZM34.5645 41H38.4145V27.925H34.5645V41ZM45.918 41.225C47.143 41.225 48.168 41 48.568 40.85V37.65H48.318C47.918 37.8 47.493 37.875 47.068 37.875C45.918 37.875 45.393 37.35 45.393 36.125V31.2H48.518V27.925H45.393V24.5H45.143L41.718 25.2V27.925H39.418V31.2H41.543V37.05C41.543 39.425 42.893 41.225 45.918 41.225ZM54.3846 41.225C56.0096 41.225 57.1596 40.65 57.8846 39.825H57.9846L58.2596 41H61.7096V32.4C61.7096 29.675 59.5596 27.7 55.9846 27.7C52.1346 27.7 50.3596 29.8 50.3596 32.25H53.9596C53.9596 31.45 54.6596 30.8 55.8596 30.8C57.2846 30.8 57.8596 31.5 57.8596 32.4V33.475C57.3346 33.3 56.0346 33.1 55.0596 33.1C51.4596 33.1 49.8096 34.7 49.8096 37.125C49.8096 39.45 51.4346 41.225 54.3846 41.225ZM55.3596 38.225C54.2096 38.225 53.6096 37.675 53.6096 36.925C53.6096 36.225 54.2596 35.675 55.5096 35.675C56.2596 35.675 57.0596 35.775 57.8596 36.1V36.225C57.8596 37.3 56.9346 38.225 55.3596 38.225ZM63.46 41H67.31V22.5H63.46V41ZM6.425 63.225C9.75 63.225 12.15 61.75 12.15 59.05C12.15 56.3 10.275 55.375 8.275 55L5.775 54.525C5.15 54.4 4.8 54.125 4.8 53.625C4.8 53.125 5.375 52.725 6.325 52.725C7.625 52.725 8.075 53.475 8.05 54.075H11.85C11.85 51.65 9.8 49.7 6.4 49.7C2.9 49.7 1.025 51.45 1.025 53.575C1.025 56.2 2.925 57.275 5.025 57.675L6.95 58.05C7.85 58.225 8.275 58.5 8.275 59.075C8.275 59.525 7.8 60.025 6.425 60.025C5.05 60.025 4.475 59.3 4.475 58.575H0.625C0.7 61.25 2.35 63.225 6.425 63.225ZM19.2686 63.225C20.4936 63.225 21.5186 63 21.9186 62.85V59.65H21.6686C21.2686 59.8 20.8436 59.875 20.4186 59.875C19.2686 59.875 18.7436 59.35 18.7436 58.125V53.2H21.8686V49.925H18.7436V46.5H18.4936L15.0686 47.2V49.925H12.7686V53.2H14.8936V59.05C14.8936 61.425 16.2436 63.225 19.2686 63.225ZM31.9102 49.925V57.2C31.9102 58.7 31.2852 59.6 29.7852 59.6C28.2602 59.6 27.6352 58.7 27.6352 57.2V49.925H23.7852V57.775C23.7852 60.55 25.4852 63.225 29.7602 63.225C29.7602 63.225 29.7602 63.225 29.7852 63.225C34.0602 63.225 35.7602 60.55 35.7602 57.775V49.925H31.9102ZM42.4377 63.225C44.2877 63.225 45.2877 62.5 45.9127 61.75H46.0127L46.4127 63H49.8627V44.5H46.0127V51.175H45.9127C45.2877 50.425 44.2877 49.7 42.4377 49.7C39.1377 49.7 37.1377 52.55 37.1377 56.45C37.1377 60.375 39.1377 63.225 42.4377 63.225ZM43.6127 59.85C41.7127 59.85 41.0377 58.275 41.0377 56.45C41.0377 54.625 41.6627 53.075 43.6127 53.075C45.5627 53.075 46.1877 54.625 46.1877 56.45C46.1877 58.275 45.5127 59.85 43.6127 59.85ZM53.5682 48.6C55.0432 48.6 55.8932 47.75 55.8932 46.35C55.8932 44.975 55.0432 44.125 53.5682 44.125C52.0432 44.125 51.2432 44.975 51.2432 46.35C51.2432 47.75 52.0432 48.6 53.5682 48.6ZM51.6182 63H55.4682V49.925H51.6182V63ZM63.1217 63.225C67.3717 63.225 69.6467 60.375 69.6467 56.475C69.6467 52.55 67.3217 49.7 63.1217 49.7C58.9217 49.7 56.5967 52.55 56.5967 56.475C56.5967 60.4 58.8717 63.225 63.1217 63.225ZM63.1217 59.85C61.5467 59.85 60.5217 58.85 60.5217 56.475C60.5217 54.125 61.5217 53.075 63.1217 53.075C64.7217 53.075 65.7217 54.1 65.7217 56.475C65.7217 58.85 64.7217 59.85 63.1217 59.85ZM72.9033 63.225C74.3283 63.225 75.1533 62.375 75.1533 60.975C75.1533 59.6 74.3283 58.75 72.9033 58.75C71.4283 58.75 70.6533 59.6 70.6533 60.975C70.6533 62.375 71.4283 63.225 72.9033 63.225Z" fill="#17161A"></path></svg> 